<svg width="180" height="48" viewBox="0 0 180 48" fill="none" xmlns="http://www.w3.org/2000/svg">
  <g fill="#F9FAFB">
    <circle cx="24" cy="17" r="8"/>
    <path d="M14 32C14 26.4772 18.4772 22 24 22C29.5228 22 34 26.4772 34 32V34C34 35.1046 33.1046 36 32 36H16C14.8954 36 14 35.1046 14 34V32Z"/>
    <circle cx="8" cy="20" r="6"/>
    <path d="M0 10C0 5.02944 4.02944 1 9 1C13.9706 1 18 5.02944 18 10V11C18 12.1046 17.1046 13 16 13H2C0.895431 13 0 12.1046 0 11V10Z" transform="translate(0 21)"/>
    <circle cx="40" cy="20" r="6"/>
    <path d="M0 10C0 5.02944 4.02944 1 9 1C13.9706 1 18 5.02944 18 10V11C18 12.1046 17.1046 13 16 13H2C0.895431 13 0 12.1046 0 11V10Z" transform="translate(32 21)"/>
  </g>
  <text x="78" y="23" fill="#F9FAFB" font-family="Helvetica Neue, Arial, sans-serif" font-weight="700" font-size="18" letter-spacing="0.12em">AHİ-İK</text>
  <text x="160" y="23" fill="#A5B4FC" font-family="Helvetica Neue, Arial, sans-serif" font-weight="700" font-size="18">360</text>
  <text x="78" y="37" fill="#E5E7EB" font-family="Helvetica Neue, Arial, sans-serif" font-size="9" letter-spacing="0.18em">YENİ NESİL DİJİTAL İK PLATFORMU</text>
</svg>

